<svg xmlns="http://www.w3.org/2000/svg" xmlns:xlink="http://www.w3.org/1999/xlink" viewBox="0 0 279.82 87.91"><defs><style>.cls-1{fill:#e5006c;}.cls-2{fill:url(#Unbenannter_Verlauf_11);}.cls-3{fill:#7c9129;}.cls-4{fill:#f59a00;}.cls-5{fill:#fbba00;}.cls-6{fill:#fffbdc;}</style><linearGradient id="Unbenannter_Verlauf_11" x1="94.38" y1="51.38" x2="237.95" y2="51.38" gradientUnits="userSpaceOnUse"><stop offset="0" stop-color="#e5006c"/><stop offset="0.4" stop-color="#e2166c"/><stop offset="0.69" stop-color="#7c9129"/></linearGradient></defs><g id="Ebene_2" data-name="Ebene 2"><g id="Ebene_1-2" data-name="Ebene 1"><path class="cls-1" d="M114.91,28.36c0,7.89-6.41,15.56-17.85,15.56-8.82,0-16.14-5.49-16.14-14.19,0-7.89,6.52-15.56,17.91-15.56C107.64,14.17,114.91,19.66,114.91,28.36ZM101.52,29.5c0-9.15-1.78-14.87-4-14.87-1.94,0-3.2,3.66-3.2,14,0,9.21,1.83,14.87,4.06,14.87C100.32,43.46,101.52,39.86,101.52,29.5Z"/><path class="cls-1" d="M141.51,24.18H141c-.86-4.46-4.18-9.55-9.39-9.55-1.6,0-2.86.8-2.86,2.63,0,6.35,15.34,7,15.34,16.82,0,6-4.93,9.84-14.08,9.84-4,0-4.52-1.26-11.5-1.26L118,32.42h.46c1.26,5.61,5.78,10.93,10.87,10.93,2.29,0,3.55-1.15,3.55-2.92,0-6.58-15-7.61-15-17,0-5.89,5.32-9.21,13.27-9.21,4,0,6.24,1.31,10.7,1.31Z"/><path class="cls-1" d="M168.17,40.72A13.29,13.29,0,0,0,176,38.26l.29.23c-3.09,3.66-7.27,5.43-13.27,5.43-10.7,0-16.37-5.66-16.37-14.19s7.67-15.56,17.68-15.56c7.78,0,13.39,3.6,13.79,11.1l-.74.74H160.05c-.06.86-.06,1.72-.06,2.46C160,35.34,162.39,40.72,168.17,40.72Zm-1.66-15.85a22.1,22.1,0,0,0,.23-3.26c0-4.41-1.26-7-3-7-1.89,0-3,3.54-3.67,10.92Z"/><path class="cls-1" d="M204.67,24.18h-.51c-.86-4.46-4.18-9.55-9.38-9.55-1.61,0-2.86.8-2.86,2.63,0,6.35,15.33,7,15.33,16.82,0,6-4.92,9.84-14.08,9.84-4,0-4.52-1.26-11.5-1.26l-.51-10.24h.46c1.26,5.61,5.78,10.93,10.87,10.93,2.29,0,3.55-1.15,3.55-2.92,0-6.58-15-7.61-15-17,0-5.89,5.33-9.21,13.28-9.21,4,0,6.23,1.31,10.7,1.31Z"/><path class="cls-1" d="M24.43,86.77c-3.78,0-10.13-.18-13.44-.18-6,0-11,.18-11,.18v-.58c2.92,0,4.29-2.68,4.29-7.15V52.38c0-4.06-1.37-5.09-4.29-5.09v-.57s5,.17,11,.17c2.91,0,8.58-.17,12.13-.17,7.32,0,15.33,2.23,15.33,9.26,0,5.73-5.55,9-13,9.22v.23c9.16.28,14.93,4.92,14.93,10.41C40.39,84,32.78,86.77,24.43,86.77ZM17.68,65c4.63,0,7-2.86,7-9,0-5.2-1.95-8.58-5.61-8.58a4.2,4.2,0,0,0-1.43.23Zm0,.58V81.1c0,4.06,1.26,5.09,3.38,5.09,3.31,0,4.86-4.34,4.86-10.12C25.92,72,23.92,65.6,17.68,65.6Z"/><path class="cls-1" d="M61,86.77s-2.75-.18-8.52-.18-9.67.18-9.67.18v-.52c2.23,0,3.26-1.54,3.26-4V50.15c0-2.23-1-2.92-3-2.92l-.22-.51a48.47,48.47,0,0,0,16-2.87V84.08c0,1.71,1,2.17,2.23,2.17Z"/><path class="cls-1" d="M82.16,59.3l14.42-.51.46.46V81.67c0,2.24.91,3,3,3l.29.46a44.52,44.52,0,0,0-15.45,2.8l-.52-4.46c-3.77,1.26-6.4,4.46-10.92,4.46s-7.21-2.8-7.21-8v-17c0-2.63-.86-3.09-3.09-3.09V59.3l15.33-.51.46.46V81.33c0,1.66,1,2.58,2.12,2.58s1.77-.46,3.31-.92V62a1.9,1.9,0,0,0-2.17-2.17Z"/><path class="cls-1" d="M141.55,64.74c0-1.66-.69-2.52-2.12-2.52-.91,0-2.69,1-3.49,1.2a7.68,7.68,0,0,1,.17,1.83V84.08a1.91,1.91,0,0,0,2.18,2.17v.52s-2.81-.18-8.47-.18-8.53.18-8.53.18v-.52c1.55,0,2.12-.74,2.12-2.69V64.74c0-1.66-.91-2.52-2.06-2.52a11.29,11.29,0,0,0-3.32.86v21c0,1.71,1,2.17,2.23,2.17v.52s-2.74-.18-8.52-.18-9.67.18-9.67.18v-.52c2.23,0,3.26-1.54,3.26-4V64.45c0-2.23-1-3-3-3l-.23-.46a49.44,49.44,0,0,0,16-2.8v4.46c3.38-1.26,6.41-4.46,10.87-4.46a6.78,6.78,0,0,1,6.93,4.8c3.89-1.25,6.06-4.8,11.21-4.8,4.52,0,7.21,2.8,7.21,8.07v17c0,2.57.92,3,3.15,3v.52s-3.84-.18-9.5-.18c-5.27,0-8.53.18-8.53.18v-.52c1.61,0,2.18-.74,2.18-2.69Z"/><path class="cls-1" d="M179.71,84.71a13.29,13.29,0,0,0,7.78-2.46l.29.23c-3.09,3.66-7.27,5.43-13.28,5.43-10.7,0-16.36-5.66-16.36-14.19s7.67-15.56,17.68-15.56c7.78,0,13.39,3.6,13.79,11.1l-.75.74H171.58c-.05.86-.05,1.72-.05,2.46C171.53,79.33,173.93,84.71,179.71,84.71Zm-1.66-15.85a22.1,22.1,0,0,0,.23-3.26c0-4.41-1.26-7-3-7-1.88,0-3,3.54-3.66,10.92Z"/><path class="cls-1" d="M209.86,86.77s-2.75-.18-8.52-.18-9.67.18-9.67.18v-.52c2.23,0,3.26-1.54,3.26-4V64.45c0-2.23-1-3-3-3l-.23-.46a49.52,49.52,0,0,0,16-2.8v4.46c3.38-1.26,6.41-4.46,10.87-4.46s7.21,2.8,7.21,8.07v17c0,2.57.92,3,3.15,3v.52s-3.78-.18-9.44-.18c-5.32,0-8.53.18-8.53.18v-.52c1.55,0,2.12-.74,2.12-2.69V64.74c0-1.66-.92-2.52-2.06-2.52a11.29,11.29,0,0,0-3.32.86v21c0,1.71,1,2.17,2.23,2.17Z"/><path class="cls-1" d="M86.6,51.86c-19.45,0-25.18-13.24-26-19.48l-.91-6.58c-.35-2.57-1.43-4.52-5-4.52V34.39c0,4.06,1.37,5.09,4.29,5.09v.57s-5-.17-11-.17-11,.17-11,.17v-.57c2.92,0,4.29-2.69,4.29-7.15V5.66C41.28,1.6,39.91.57,37,.57V0s5,.17,11,.17C51.92.17,55.3,0,59.3,0c8.41,0,15.85,2.57,15.85,10.13,0,5.38-3.89,9.61-14,10.58v.23c7.38,0,12,1.53,13.73,8.3S79.33,50.9,93.29,50.9h1.33v1ZM54.67,20.54c4.63,0,6.75-3.66,6.75-10.41,0-5.5-1.66-9.44-5.32-9.44a4,4,0,0,0-1.43.23Z"/><rect class="cls-2" x="94.38" y="50.9" width="143.56" height="0.96"/><ellipse class="cls-3" cx="218.87" cy="40.33" rx="14.95" ry="6.85" transform="translate(35.59 166.57) rotate(-45)"/><path class="cls-4" d="M279.31,60.29a7.51,7.51,0,0,0-4.3-9.72l-.25-.08a2.34,2.34,0,0,1,.24-.09,7.52,7.52,0,0,0-6.09-13.76l-.23.12a2.56,2.56,0,0,0,.11-.24,7.51,7.51,0,1,0-14-5.41,2.34,2.34,0,0,0-.09.24c0-.08-.06-.16-.1-.24a7.52,7.52,0,1,0-13.75,6.09l.13.23-.24-.11a7.52,7.52,0,1,0-5.42,14l.24.08-.24.09a7.52,7.52,0,0,0,6.09,13.75l.23-.11c0,.08-.07.15-.1.23a7.52,7.52,0,1,0,14,5.42c0-.08.05-.16.08-.25,0,.08.06.17.1.25a7.52,7.52,0,1,0,13.75-6.09l-.12-.23.24.1A7.52,7.52,0,0,0,279.31,60.29Z"/><path class="cls-5" d="M269.65,56.56a4.52,4.52,0,0,0-2.58-5.84l-.15,0,.15-.05a4.52,4.52,0,1,0-3.66-8.26l-.14.07a.91.91,0,0,0,.07-.14A4.51,4.51,0,1,0,254.92,39l0,.15a.94.94,0,0,1-.06-.15,4.51,4.51,0,1,0-8.25,3.66l.07.13-.15-.06a4.51,4.51,0,0,0-3.25,8.42l.15.05-.15.06a4.51,4.51,0,1,0,3.66,8.25l.14-.07-.06.14a4.51,4.51,0,1,0,8.42,3.26c0-.05,0-.1,0-.15l.06.14a4.51,4.51,0,0,0,8.25-3.65l-.06-.14a.59.59,0,0,0,.14.06A4.5,4.5,0,0,0,269.65,56.56Z"/><circle class="cls-6" cx="255.15" cy="51.76" r="6.93"/></g></g></svg>